<svg xmlns="http://www.w3.org/2000/svg" width="640px" height="290px">
<g>
	<g>
		<g>
			<g>
				<g>
					<polygon fill-rule="evenodd" clip-rule="evenodd" fill="#FFFFFF" points="20,26.896 39.1,26.896 39.1,23.096 27.8,23.096 
						39.2,13.298 39.2,9.999 20.5,9.999 20.5,13.599 31.9,13.599 20,23.795 					"/>
				</g>
			</g>
			<g>
				<g>
					<rect x="42.2" y="22.396" fill-rule="evenodd" clip-rule="evenodd" fill="#FFFFFF" width="5" height="4.499"/>
				</g>
			</g>
			<g>
				<g>
					<polygon fill-rule="evenodd" clip-rule="evenodd" fill="#FFFFFF" points="68.2,23.096 56.5,23.096 56.5,19.897 66.9,19.897 
						66.9,16.397 56.5,16.397 56.5,13.599 67.8,13.599 69,9.999 51.3,9.999 51.3,26.896 69.7,26.896 					"/>
				</g>
			</g>
			<g>
				<g>
					<rect x="72" y="22.396" fill-rule="evenodd" clip-rule="evenodd" fill="#FFFFFF" width="5" height="4.499"/>
				</g>
			</g>
			<g>
				<g>
					<polygon fill-rule="evenodd" clip-rule="evenodd" fill="#FFFFFF" points="93.9,9.999 88.9,21.597 88.1,19.296 83.8,9.999 
						78.1,9.999 85.7,26.896 91.8,26.896 99.2,9.999 					"/>
				</g>
			</g>
			<g>
				<g>
					<rect x="100.4" y="22.396" fill-rule="evenodd" clip-rule="evenodd" fill="#FFFFFF" width="4.899" height="4.499"/>
				</g>
			</g>
		</g>
		<g>
			<g>
				<g>
					<polygon fill-rule="evenodd" clip-rule="evenodd" fill="#FFFFFF" points="69.6,32.793 69.6,28.195 68.7,28.195 66.6,30.994 
						64.4,28.195 63.5,28.195 63.5,32.793 64.4,32.793 64.4,29.595 66.4,32.194 66.6,32.194 68.6,29.595 68.6,32.793 					"/>
				</g>
			</g>
			<g>
				<g>
					<path fill-rule="evenodd" clip-rule="evenodd" fill="#FFFFFF" d="M77.2,32.594c0.133-0.134,0.2-0.434,0.2-0.9v-2.4
						c0-0.467-0.067-0.767-0.2-0.899c-0.134-0.134-0.467-0.2-1-0.2h-3.3c-0.467,0-0.768,0.066-0.9,0.2c-0.2,0.2-0.3,0.5-0.3,0.899
						v2.4c0,0.4,0.1,0.7,0.3,0.9l0.9,0.199h3.3L77.2,32.594z M76.4,29.095v2.799H72.8v-2.799H76.4z"/>
				</g>
			</g>
			<g>
				<g>
					<polygon fill-rule="evenodd" clip-rule="evenodd" fill="#FFFFFF" points="81.9,32.793 81.9,29.095 84,29.095 84,28.195 
						78.7,28.195 78.7,29.095 80.8,29.095 80.8,32.793 					"/>
				</g>
			</g>
			<g>
				<g>
					<path fill-rule="evenodd" clip-rule="evenodd" fill="#FFFFFF" d="M90.7,32.594c0.133-0.134,0.2-0.434,0.2-0.9v-2.4
						c0-0.467-0.067-0.767-0.2-0.899c-0.134-0.134-0.467-0.2-1-0.2h-3.3c-0.533,0-0.834,0.066-0.9,0.2c-0.2,0.2-0.3,0.5-0.3,0.899
						v2.4c0,0.4,0.1,0.7,0.3,0.9c0.333,0.133,0.633,0.199,0.9,0.199h3.3L90.7,32.594z M89.9,31.895H86.3v-2.799H89.9V31.895z"/>
				</g>
			</g>
			<g>
				<g>
					<path fill-rule="evenodd" clip-rule="evenodd" fill="#FFFFFF" d="M98.7,32.793L96.6,31.095H97c0.467,0,0.8-0.101,1-0.301
						c0.133-0.267,0.2-0.533,0.2-0.8v-0.7c0-0.333-0.067-0.633-0.2-0.899c-0.133-0.134-0.467-0.2-1-0.2h-3.8v4.599h1.1v-1.699h1
						l1.9,1.699H98.7z M97.2,29.895c0,0.2-0.167,0.3-0.5,0.3h-2.4v-1.099h2.4c0.333,0,0.5,0.1,0.5,0.3V29.895z"/>
				</g>
			</g>
			<g>
				<g>
					<path fill-rule="evenodd" clip-rule="evenodd" fill="#FFFFFF" d="M105.2,32.594l0.2-0.9v-0.5c0-0.333-0.067-0.633-0.2-0.9
						c-0.134-0.133-0.467-0.199-1-0.199h-2.8v-1h3v0.5l1-0.301c0-0.399-0.101-0.699-0.301-0.899c-0.066-0.134-0.366-0.2-0.899-0.2
						h-2.7c-0.267,0-0.533,0.066-0.8,0.2c-0.2,0.2-0.3,0.533-0.3,1v0.2c0,0.466,0.1,0.799,0.3,1c0.267,0.133,0.533,0.199,0.8,0.199
						h3v1.101h-3.3v-0.5l-0.9,0.2c0,0.533,0.067,0.866,0.2,1c0.333,0.133,0.667,0.199,1,0.199h2.7L105.2,32.594z"/>
				</g>
			</g>
		</g>
		<g>
			<g>
				<polygon fill-rule="evenodd" clip-rule="evenodd" fill="#FFFFFF" points="40.5,32.194 39.5,28.595 20.6,29.994 21.6,33.594 				
					"/>
			</g>
		</g>
		<g>
			<g>
				<polygon fill-rule="evenodd" clip-rule="evenodd" fill="#FFFFFF" points="41.9,33.394 26.1,36.394 28.4,39.593 43.7,36.594 				
					"/>
			</g>
		</g>
		<g>
			<g>
				<polygon fill-rule="evenodd" clip-rule="evenodd" fill="#FFFFFF" points="51,38.593 49.6,36.094 37,39.992 38.7,42.492 				"/>
			</g>
		</g>
		<g>
			<g>
				<polygon fill-rule="evenodd" clip-rule="evenodd" fill="#FFFFFF" points="58.7,39.593 57.7,37.493 47.9,41.692 49.1,43.691 				
					"/>
			</g>
		</g>
		<g>
			<g>
				<polygon fill-rule="evenodd" clip-rule="evenodd" fill="#FFFFFF" points="66.2,39.393 65.5,37.792 58,42.092 58.9,43.592 				
					"/>
			</g>
		</g>
		<g>
			<g>
				<polygon fill-rule="evenodd" clip-rule="evenodd" fill="#FFFFFF" points="67.8,42.392 73.4,38.493 72.8,37.193 67.2,41.192 				
					"/>
			</g>
		</g>
		<g>
			<g>
				<polygon fill-rule="evenodd" clip-rule="evenodd" fill="#FFFFFF" points="80,36.792 79.6,35.793 75.4,39.492 75.9,40.492 				
					"/>
			</g>
		</g>
		<g>
			<g>
				<polygon fill-rule="evenodd" clip-rule="evenodd" fill="#FFFFFF" points="85.4,35.094 85.1,34.293 82.5,37.093 82.8,37.893 				
					"/>
			</g>
		</g>
	</g>
	<g>
		<g>
			
				<line fill-rule="evenodd" clip-rule="evenodd" fill="none" stroke="#CCDBE2" stroke-linecap="round" stroke-linejoin="round" stroke-miterlimit="3" x1="410.2" y1="101.429" x2="410.2" y2="251.897"/>
		</g>
	</g>
	<g>
		<g>
			<path fill-rule="evenodd" clip-rule="evenodd" fill="#FFFFFF" d="M487.85,64.737h-6.699l4.199-14.347H492L487.85,64.737z
				 M540.7,88.232h-6.65L545,50.39h6.7L540.7,88.232z M524.55,87.932H517.9l10.85-37.442h9.75c-0.2,0.5-1.25,3.95-3.15,10.349
				l-7.5,26.044c-0.566,2.398-0.333,4.115,0.7,5.148c1.067,1.2,3.467,1.8,7.2,1.8c3.7,0,6.45-0.6,8.25-1.8
				c2.167-1.632,3.5-3.665,4-6.098l7.7-26.645c1.467-4.766,2.283-7.731,2.45-8.898H616.1l14.601-5.899H530.5l3.7-12.797H527.6
				L523.9,44.491H513.6l3.7-12.797h-6.6l-3.75,12.797H491.35c-4.066,0-7.066,0.617-9,1.85c-2.033,1.366-3.517,3.666-4.449,6.898
				l-9.45,32.543c-0.867,2.966-0.717,5.05,0.45,6.249c1.166,1.2,3.566,1.8,7.199,1.8c3.7,0,6.467-0.6,8.301-1.8
				c2.066-1.632,3.366-3.665,3.899-6.098l2.601-8.898h-6.65L481,88.232h-6.65l5.25-18.046h13.25l2.851-9.848
				c1.667-5.399,2.583-8.682,2.75-9.849h6.8l-9.8,33.693c-0.934,3.332-1,5.682-0.2,7.048c0.733,1.333,2.667,2.049,5.8,2.15h5
				l1.601-5.449H501l10.85-37.442h10.301l-9.75,33.693c-1,3.299-1.084,5.649-0.25,7.048c0.8,1.333,2.732,2.049,5.8,2.15H523
				L524.55,87.932z"/>
		</g>
		<g>
			<polygon fill-rule="evenodd" clip-rule="evenodd" fill="#FFFFFF" points="460.05,93.381 480.2,23.946 473.6,23.946 453.5,93.381 
							"/>
		</g>
		<g>
			<path fill-rule="evenodd" clip-rule="evenodd" fill="#FFFFFF" d="M438.35,87.932h-6.699L442.55,50.49h6.65l1.7-5.999h-6.65
				L448,31.694h-6.65l-3.85,13.347h-5.6L430.3,50.49h5.601l-9.75,33.693c-1,3.299-1.084,5.649-0.25,7.048
				c0.8,1.333,2.75,2.049,5.85,2.15h5L438.35,87.932z"/>
		</g>
		<g>
			<polygon fill-rule="evenodd" clip-rule="evenodd" fill="#FFFFFF" points="446.75,93.381 457.25,57.238 450.6,57.238 
				440.1,93.381 			"/>
		</g>
		<g>
			<polygon fill-rule="evenodd" clip-rule="evenodd" fill="#FFFFFF" points="452.6,50.39 459.25,50.39 460.95,44.491 454.3,44.491 
							"/>
		</g>
		<g>
			<path fill-rule="evenodd" clip-rule="evenodd" fill="#FFFFFF" d="M437.15,28.095c-0.4-3.333-3.75-4.866-10.051-4.6
				c-2.533,0.101-4.533,0.434-6,1c-1.933,0.766-3.449,2.049-4.55,3.85c-0.566,0.933-1.8,4.582-3.7,10.947L409.65,50.39
				c-0.567,1.7-0.851,3.066-0.851,4.099l0.101,1.25l0.6,1.15c0.633,0.833,1.65,1.366,3.05,1.599c1.067,0.2,2.25,0.267,3.55,0.2h5.45
				l-8.6,29.644h-7.15l5.25-18.047h-7.2l-4.399,15.147c-0.833,3.033-0.634,5.216,0.6,6.548c1.3,1.3,3.833,1.95,7.601,1.95
				c3.732,0.133,6.649-0.45,8.75-1.75c2.232-1.333,3.783-3.666,4.649-6.999l6.851-23.594c0.433-1.301,0.75-2.75,0.949-4.35
				c0-0.833-0.283-1.549-0.85-2.149c-0.434-0.733-1.1-1.233-2-1.5c-1.434-0.301-2.95-0.417-4.55-0.351H416l7-24.144h7.15
				l-4.25,14.646h7.149l3.4-11.747C436.85,30.794,437.083,29.495,437.15,28.095z"/>
		</g>
	</g>
</g>
</svg>
